<?xml version="1.0" encoding="utf-8"?>
<!-- Generator: Adobe Illustrator 26.0.1, SVG Export Plug-In . SVG Version: 6.00 Build 0)  -->
<svg version="1.1" id="Layer_1" xmlns="http://www.w3.org/2000/svg" xmlns:xlink="http://www.w3.org/1999/xlink" x="0px" y="0px"
	 viewBox="0 0 1000 1000" style="enable-background:new 0 0 1000 1000;" xml:space="preserve">
<style type="text/css">
	.st0{fill:#766D66;stroke:#766D66;stroke-width:5;stroke-miterlimit:10;}
</style>
<path class="st0" d="M672.5,234.6c-49.1-33-105.4-47.6-167.4-47.6c-61.3,0-117.6,16.2-167.6,47.6c-1-0.1-2.1,0-3.2,0H217.5v-53h-102
	v53h-53v525h258.4c53.4,36,115.3,58.7,184.2,58.7c69.5,0,131.8-22.7,185.1-58.7h247.3v-525L672.5,234.6L672.5,234.6z M147.5,213.6
	h37v21h-37V213.6z M111.5,710.7v-427h167.6c-58.6,61-88.3,134.5-88.3,218.8c0,80.2,26.3,151.2,78.2,208.2H111.5z M666.9,713.8
	c-46.7,35.9-99.6,53.4-161.8,53.4c-61.6,0-114.3-17.5-161-53.5c-9.9-8.2-18.3-16-25.5-23.9l-1-1c-52.5-51.7-78.1-113.2-78.1-188
	c0-74,25.6-135.5,78.2-188.2c12.4-12.4,26.2-24,41-34.5c43.2-28.5,92.5-42.9,146.3-42.9c54.6,0,103.7,14.4,146.1,42.7l0.9,0.6
	c14.5,9.7,28.3,21.1,41.2,34c52.7,52.7,78.2,114.2,78.2,188.2c0,74.8-25.5,136.3-78.3,188.2C684.3,698.1,675.8,706.6,666.9,713.8
	L666.9,713.8z M888.5,710.7H742.2c51.9-57,78.2-128,78.2-208.2c0-84.3-29.7-157.8-88.3-218.8h156.4V710.7z M648.7,343
	c-44.9-44.9-100.1-67.6-164-67.6c-13.5,0-24.4,10.9-24.4,24.4s10.9,24.4,24.4,24.4c51.2,0,93.6,17.4,129.5,53.3
	s53.3,78.2,53.3,129.5c0,13.5,10.9,24.4,24.4,24.4s24.4-10.9,24.4-24.4C716.3,443.1,693.6,387.9,648.7,343L648.7,343z"/>
</svg>
