<svg viewBox="0 0 464 232" fill="none" xmlns="http://www.w3.org/2000/svg">
  <path d="M131.661 1.168C73.491 16.788 26.781 45.077 1.207 80.216M462.452 80.216C435.653 45.198 392.404 17.15 339.835 1M1 230.523c147.921-31.06 301.244-30.29 461.411-1.049M57.566 47.868s78.198-21.032 172.562-21.032c94.364 0 176.807 21.032 176.807 21.032M133.761 189.993c33.394 0 60.462-27.069 60.462-60.46 0-33.391-27.068-60.462-60.462-60.462-33.394 0-60.46 27.068-60.46 60.462 0 33.394 27.071 60.46 60.46 60.46Z" stroke="#9e9e9e" stroke-width="2" stroke-miterlimit="10"/>
  <path d="M128.563 159.24s-.646-28.132-.116-31.135a5.528 5.528 0 0 1 2.274-3.562 5.5 5.5 0 0 1 1.972-.866 5.51 5.51 0 0 1 5.716 2.228 5.514 5.514 0 0 1 .912 4.126c-.52 2.993-10.758 29.209-10.758 29.209ZM133.925 180.879l-.089 8.996M133.86 69.126l.079 9.073M170.911 166.873l5.444 5.538M91.665 85.971l5.943 5.837M185.577 128.934l8.752.086M73.041 129.013l8.11-.079M169.833 91.865l5.805-5.701M91.353 172.676l5.463-5.805M335.176 189.121c33.391 0 60.459-27.071 60.459-60.462 0-33.391-27.068-60.462-60.459-60.462-33.392 0-60.46 27.07-60.46 60.462 0 33.391 27.068 60.462 60.46 60.462Z" stroke="#9e9e9e" stroke-width="2" stroke-miterlimit="10"/>
  <path d="M335.732 157.731s-6.785-27.302-6.925-30.338a5.521 5.521 0 1 1 11.023-.513c.137 3.036-4.098 30.851-4.098 30.851ZM336.226 179.998l-.089 9.116M336.158 68.493l.072 8.834M373.212 165.999l5.201 5.297M293.738 84.856l6.185 6.078M387.882 128.06h7.464M274.617 128.132l8.832-.08M372.133 90.991l5.494-5.388M292.936 172.288l6.18-6.289M354.992 176.182l3.296 8.367M313.154 72.817l3.371 8.16M384.03 149.347l6.819 2.959M279.929 103.895l8.013 3.32M383.433 108.674l7.993-3.13M278.961 150.965l7.625-3.162M354.927 80.217l3.25-7.465M312.215 184.609l3.099-7.5" stroke="#9e9e9e" stroke-width="2" stroke-miterlimit="10"/>
  <path d="M19.571 226.798S8.575 103.721 37.504 80.978c28.93-22.745 94.682-39.106 197.994-39.106 103.311 0 165.285 25.81 190.476 39.97 25.19 14.16 19.642 144.658 19.642 144.658" stroke="#9e9e9e" stroke-width="2" stroke-miterlimit="10"/>
</svg>
