<svg width="24" height="24" xmlns="http://www.w3.org/2000/svg">
  <g fill="none" fill-rule="evenodd">
    <rect fill="#FFF" width="24" height="24" rx="3"/>
    <path d="M12 6.5625c1.3275 0 2.51625.4575 3.45375 1.35l2.56875-2.56875C16.4625 3.8925 14.42625 3 12 3 8.4825 3 5.44125 5.0175 3.96 7.9575l2.9925 2.32125C7.66125 8.145 9.6525 6.5625 12 6.5625z" fill="#EA4335"/>
    <path d="M20.6175 12.20625c0-.58875-.05625-1.15875-.1425-1.70625H12v3.3825h4.8525c-.2175 1.11-.8475 2.055-1.7925 2.6925l2.89875 2.25c1.69125-1.5675 2.65875-3.885 2.65875-6.61875z" fill="#4285F4"/>
    <path d="M6.94875 13.72125c-.18-.54375-.285-1.12125-.285-1.72125 0-.6.10125-1.1775.285-1.72125L3.95625 7.9575C3.345 9.1725 3 10.545 3 12c0 1.455.345 2.8275.96 4.0425l2.98875-2.32125z" fill="#FBBC05"/>
    <path d="M12 21c2.43 0 4.47375-.79875 5.95875-2.17875l-2.89875-2.25c-.80625.54375-1.845.8625-3.06.8625-2.3475 0-4.33875-1.5825-5.05125-3.71625l-2.9925 2.32125C5.44125 18.9825 8.4825 21 12 21z" fill="#34A853"/>
    <path d="M3 3h18v18H3z"/>
  </g>
</svg>
