<?xml version="1.0" encoding="utf-8"?>
<!-- Generator: Adobe Illustrator 26.0.1, SVG Export Plug-In . SVG Version: 6.00 Build 0)  -->
<svg version="1.1" id="Layer_1" xmlns="http://www.w3.org/2000/svg" xmlns:xlink="http://www.w3.org/1999/xlink" x="0px" y="0px"
	 viewBox="0 0 1000 1000" style="enable-background:new 0 0 1000 1000;" xml:space="preserve">
<style type="text/css">
	.st0{fill:#766D66;}
</style>
<path class="st0" d="M680.5,557.2c-12.2-15.3-31-14.7-42.1,1.4c-6.1,8.9-12.2,17.6-18.2,26.3c-11.1,16.1-30.5,17.2-43.3,2.4
	c-27.3-31.5-53.5-61.7-79.9-92c-12.8-14.8-33.4-14.6-46,0.3l-39.9,47.5c-12.6,15-31.5,19.4-42.2,9.9s-25.3-9.5-32.6-0.1
	c-7.3,9.4-19.8,5.8-27.8-8c-4.8-8.3-9.6-16.6-14.5-24.9c-4.1-7.1-8.5-11.2-9.8-9.1c-0.9,1.4-1.6,2.6-2.2,3.8
	c-26.4,49.3-86.1,156.8-93,155.2l-8.3,82h619c19.6,0,25.6-12.4,13.4-27.7L680.5,557.2L680.5,557.2z M600.2,431.8
	c51.3,0.2,91.3-38.6,92-89.2c0.7-52.2-39.3-94.2-90.3-95c-52.1-0.8-94.8,42.1-94.1,94.4C508.6,392,549.4,431.6,600.2,431.8
	L600.2,431.8z M898.4,135.5H101.6c-21.4,0-39.1,17.4-39.1,39.1v650.2c0,21.6,17.7,39.3,39.1,39.3h796.9c21.6,0,39.1-17.7,39.1-39.3
	V174.6C937.5,153,920.1,135.5,898.4,135.5z M886.6,779.3c0,21.4-17.4,39.1-39.1,39.1H152.4c-21.4,0-39.1-17.7-39.1-39.1V220.4
	c0-21.6,17.7-39.1,39.1-39.1h695.2c21.6,0,39.1,17.4,39.1,39.1v558.9H886.6z"/>
</svg>
