<svg viewBox="0 0 414 265" fill="none" xmlns="http://www.w3.org/2000/svg">
  <path d="M210.626 131.341s17.088-11.758 37.08-18.603c20.087-6.882 21.631-6.788 44.322-9.287M214.17 155.001s4.097-3.7 9.703-3.382c5.737.326 11.826 4.879 15.299 7.893 8.048 6.944 8.714 17.955 8.714 17.955l.145 6.906-1.41-.185M298.311 122.935s-4.56-.925-10.411 4.272c-11.898 10.562-25.655 31.894-18.547 53.694" stroke="#9e9e9e" stroke-width="2" stroke-miterlimit="10"/>
  <path d="M308.708 136.266c2.72-34.015-19.19-63.161-48.938-65.1-29.747-1.94-56.068 24.062-58.788 58.077-2.72 34.015 19.19 63.161 48.938 65.101 29.747 1.939 56.068-24.063 58.788-58.078Z" stroke="#9e9e9e" stroke-width="2" stroke-miterlimit="10"/>
  <path d="M298.24 123.002c.521 4.167.612 8.368.273 12.55-1.672 20.893-13.572 38.216-29.299 45.433M210.728 131.013c.023-.393.051-.785.081-1.177 2.29-28.613 23.768-50.544 47.999-48.965 14.165.925 26.125 9.68 33.16 22.513M246.594 184.052c-15.243-2.622-26.999-13.493-32.318-29.154M410.984 70.98S289.449 54.074 261.161 51.625c-28.289-2.45-87.827-7.353-87.827-7.353s-3.388-.694-11.416-3.254c-8.029-2.56-52.28-27.932-52.28-27.932M29.176 1.227s67.614 26.772 77.457 30.566C116.476 35.587 127.668 44 127.668 44l9.155 8.431c-14.99 3.87-31.389 7.57-49.122 10.664-18.131 3.164-76.23 9.41-86.657 10.424" stroke="#9e9e9e" stroke-width="2" stroke-miterlimit="10"/>
  <path d="M198.24 127.309s-53.582-18.159-60.729-21.923c-7.021-3.7-19.555-20.16-20.071-20.966-.516-.807-1.565-1.347-1.5-3.256.066-1.91 4.896-14.49 6.308-16.28 1.412-1.79 4.046-3.229 5.409-3.799 1.363-.57 34.738-13.16 34.738-13.16L272.82 58.112l140.144 17.234M191.574 125.725s-49.411 25.216-52.279 27.266c-1.7 1.204-2.818 2.955-3.123 4.886M170.4 144.292c2.344.16 12.81 4.686 13.506 7.059.645 2.205-8.037 8.064-11.61 7.124-3.574-.94-12.198-4.933-11.887-5.096.312-.163-2.201-2.087.601-4.61 2.803-2.524 7.046-4.638 9.39-4.477Z" stroke="#9e9e9e" stroke-width="2" stroke-miterlimit="10"/>
  <path d="m165.135 155.99.074 2.307s.388 3.403 2.921 3.537c2.532.133 3.253.404 3.77.449 2.109.177 3.483-.368 4.067-.896 1.025-.922 1.536-3.789 1.787-4.39M139.295 152.991c.019-1.515-23.568-15.483-31.444-15.483-10.501 0-62.237 14.533-62.237 14.533" stroke="#9e9e9e" stroke-width="2" stroke-miterlimit="10"/>
  <path d="M1.085 125.648s12.566 3.7 36.88 20.72c24.313 17.02 28.138 30.093 28.138 30.093" stroke="#9e9e9e" stroke-width="2" stroke-miterlimit="10"/>
  <path d="M14.886 188.711c1.202-.272 72.818-17.479 72.818-17.479s3.551-1.078 9.616.271c6.065 1.35 9.613 6.51 9.613 6.51s11.032 12.377 12.671 16.746c1.639 4.368-.432 13.093-4.601 15.243" stroke="#9e9e9e" stroke-width="2" stroke-miterlimit="10"/>
  <path d="M55.995 217.408c3.74-1.305 63.311-22.777 63.311-22.777" stroke="#9e9e9e" stroke-width="2" stroke-miterlimit="10"/>
  <path d="M84.406 257.367s-12-23.026-28.411-39.959c-13.386-13.813-41.109-28.697-41.109-28.697" stroke="#9e9e9e" stroke-width="2" stroke-miterlimit="10"/>
  <path d="M66.65 229.987c.9-.272 81.499-32.807 88.957-36.235 7.458-3.429 24.04-14.378 24.04-14.378l.257-.148.066-.037 24.606-14.117M211.165 203.658c3.712-.59 26.567 14.023 26.567 14.023s57.779 37.51 60.792 40.245a6.962 6.962 0 0 1 1.919 2.782 6.376 6.376 0 0 1 .313 3.264M108.447 257.367s20.112-18.618 21.308-19.703c1.197-1.086 40.074-36.433 81.41-34.005" stroke="#9e9e9e" stroke-width="2" stroke-miterlimit="10"/>
  <path d="M136.858 257.366s30.597-27.323 50.436-36.999c19.839-9.677 43.42-7.03 43.42-7.03" stroke="#9e9e9e" stroke-width="2" stroke-miterlimit="10"/>
  <path d="M216.601 251.538c-.601-.814-9.081-12.422-25.54-17.905-16.46-5.483-21.331-2.171-21.331-2.171M297.729 166.646l100.022 36.948M308.482 137.891l30.061 8.036 65.218 24.368M95.607 38.576c-3.86-.538-14.206.878-15.845 2.22-2.731 2.22-2.816 6.776-2.731 10.36.06 2.553 1.912 5.18 3.824 5.92.948.367 19.148 1.746 19.943.74.795-1.007-2.459-13.567-2.459-13.567s-.92-5.422-2.732-5.673Z" stroke="#9e9e9e" stroke-width="2" stroke-miterlimit="10"/>
  <path d="M96.73 36.272c2.12.267 17.811 2.467 25.9 11.648 1.134 1.29 4.645 7.034 4.645 7.034l-25.743 5.587s-7.146.314-8.436.225c-1.29-.09-17.21-1.053-19.35-2.151-2.138-1.098-3.117-4.174-3.278-7.46-.273-5.426.82-14.799 26.256-14.895M104.42 88.319l7.89-1.503M6.849 122.185l50.974-14.38s26.944-6.45 29.919-6.45c2.975 0 4.917 1.882 5.805 2.15.888.269 4.918-2.286 7.147-4.032 2.229-1.747 8.195-8.064 6.996-9.275-1.199-1.211-3.278-1.88-3.278-1.88L89.758 100.01M52.17 158.455c15.299-7.153 69.136-16.428 69.136-16.428" stroke="#9e9e9e" stroke-width="2" stroke-miterlimit="10"/>
  <path d="M80.309 150.316s9.015-1.986 21.581 1.842c12.567 3.828 19.648 12.627 19.648 12.627l14.634-6.907-33.601 15.984M110.938 240.51l-2.529 4.837-3.202.136c.601-.814 1.267-3.093 1.267-3.093s-6.075-2.745-6.253-3.628c-.177-.884 1.639-13.641 2.15-14.122.511-.481 8.914-3.174 9.835-2.96.92.215 5.791 2.96 5.791 2.96s-11.075 2.96-11.52 3.505c-.445.545-2.308 10.55-1.937 11.221.372.671 3.942 1.884 3.942 1.884s6.849-2.284 7.147-2.688c.298-.405 2.458-13.438 2.366-13.919M311.697 11.508s28.581 16.132 41.678 25.132c13.096 9.001 57.609 34.34 57.609 34.34M117.667 78.506s16.377 5.821 22.032 8.063c5.655 2.242 23.071 6.295 34.739 9.438 11.667 3.142 32.7 9.541 32.7 9.541M218.265 109.24c11.668 3.143 20.216 5.802 20.216 5.802M281.101 76.81c17.483-.494 51.905 4.193 75.126 45.386l50.539 15.786M231.38 91.608c9.649 2.334 11.201 2.22 11.201 2.22s10.381-7.4 21.035-11.1M127.269 64.59c-3.513.246 54.864 15.046 89.906 23.566" stroke="#9e9e9e" stroke-width="2" stroke-miterlimit="10"/>
</svg>
