<?xml version="1.0" encoding="utf-8"?>
<!-- Generator: Adobe Illustrator 26.0.1, SVG Export Plug-In . SVG Version: 6.00 Build 0)  -->
<svg version="1.1" id="Layer_1" xmlns="http://www.w3.org/2000/svg" xmlns:xlink="http://www.w3.org/1999/xlink" x="0px" y="0px"
	 viewBox="0 0 1000 1000" style="enable-background:new 0 0 1000 1000;" xml:space="preserve">
<style type="text/css">
	.st0{fill:#766D66;}
</style>
<path class="st0" d="M541.9,649.4c-4.5-4.1-7.3-6.3-9.8-8.8c-54.1-54-107.9-108.2-162.3-161.9c-8.9-8.7-6.1-12.8,1.8-19.6
	c167.6-143.4,335-286.9,502.2-430.7c8.8-7.6,14.2-8.7,22.8,0.2c27.6,28.5,55.5,56.7,84.3,84c10,9.5,8.2,15.1,0.1,24.6
	c-123.2,143-246,286.4-368.9,429.7c-20.2,23.6-40.5,47-60.6,70.5C548.3,641.2,545.3,645.2,541.9,649.4z M517.4,670.9
	C441.6,723.2,368.1,773.7,295,824.8c-9,6.3-14.3,5.6-21.8-2.1c-28.6-29.4-57.6-58.5-87-87c-7.4-7.3-6.7-12.2-1.3-19.9
	c48.9-70.3,97.5-140.8,146-211.3c5.8-8.5,9.9-10.1,17.9-2.1C404.1,558.1,459.7,613.3,517.4,670.9z M0,1000
	c38.6-41.2,55.2-87.4,62.3-137.4c2.1-14.7,8.1-24.7,20.1-33.3c29.3-21,58-42.8,86.4-65c8.4-6.6,13.7-6.9,21.3,1.1
	c16.9,17.8,34.3,35.1,52.5,51.6c9.3,8.5,10.5,14.3,2.1,24.8c-27.1,33.6-53,68.3-79.4,102.5c-4.4,5.6-8.2,11.5-17.1,11.1
	c-50.9-2.1-95.8,16.1-138.5,41.5C8,997.9,5.9,998.2,0,1000L0,1000z M143.1,896.8c-1.3-13.1-8-22.3-21.4-22.7
	c-11.9-0.3-20.5,6.5-21.5,19.4c-1,13.6,5.2,22.2,19.3,23.3C133.6,918,140.1,909.2,143.1,896.8L143.1,896.8z M915.9,0
	c46.4-0.9,84.8,37.1,84.2,85C972.5,57.2,942.7,27,915.9,0z"/>
</svg>
