<svg viewBox="0 0 364 200" fill="none" xmlns="http://www.w3.org/2000/svg">
  <g clip-path="url(#a)" stroke="#9e9e9e" stroke-width="2" stroke-miterlimit="10">
    <path d="m356.43 109.12-2.359-13.379-6.276-17.22-4.904-6.867-8.829-5.889-13.143-5.687 3.336-1.567 2.747-6.672-1.567-4.112-13.927-3.732h-2.94l-1.963 3.53-12.166-11.963-16.083-14.904-14.904-10.203-21.576-5.493-27.465-2.94-30.6-1.18h-24.912L124.575 2.41 93.192 6.336l-24.516 6.672-13.143 5.687-38.84 49.235-8.601 4.701L6.39 90.273v13.632l-3.53 10.582-1.575 29.445 4.499 19.959h28.594l10.093-1.34 88.698 1.82 21.905 2.679 48.662.607 4.508-17.272 4.499-16.184 4.499-13.876 3.892-7.178 3.774-4.617 4.508-2.435 3.403.245 3.775 2.19 3.521 5.35 2.561 7.305 2.065 11.921.488 12.654-.244 14.356 80.542-12.536 2.798-16.909 2.561-16.673 3.766-11.315 2.561-6.2 3.041-4.626 3.042-1.34 3.041 1.222 3.286 4.002 2.435 8.282"/>
    <path d="M54.43 24.382 26.003 60.55l60.154 1.399h24.618l65.748-.64 9.006-36.295-28.426-4.44-34.138-2.283H103.8l-18.4.758-24.753 3.302-6.218 2.03ZM21.218 67.408l4.786.927 5.038 11.955-2.039 5.375-8.711 11.677H6.39M206.028 73.617l-11.492-4.819-9.006-1.575-20.557 1.575-3.521 3.244-4.365 9.823 13.725 17.886 28.914-.463 4.078-13.252 2.224-12.419ZM55.862 129.214l-1.795 14.179 65.268 1.348 1.913-14.289-65.386-1.238ZM20.485 104.352l3.134 3.243 6.378 3.008 12.157 1.567 105.666 1.087 10.717-.969 6.377-1.685 4.086-3.008 2.166-2.165M7.865 143.89l36.412 2.418 61.494 1.289 58.832.64 30.447-.96M202.81 20.127V45.09l2.35 4.078 5.316 3.951 8.156 3.219 13.715 1.112 42.268 2.839 31.392 1.66-3.834-14.76-18.29-17.424-11.247-9.638-10.254-5.316-13.353-4.078-11.121-.497-13.96.868-11.13 2.84-6.79 2.594-3.218 3.59ZM278.196 77.594l.994 2.721 10.751.868M233.704 74.502l.868 3.092 11.618.868M6.247 164.64l1.618 8.779 3.353 9.285 6.116 8.062 5.611 2.157h26.48l2.957-1.146 4.82-4.827 3.453-6.403 2.73-6.117 1.373-5.249.717-6.2"/>
    <path d="m30.932 164.784.935 5.114 2.52 6.259 2.805 4.819 3.816 5.325 3.598 3.96 4.819 2.662M221.134 113.147l10.59.11 3.53 2.106 3.244 4.423 3.437 9.225 1.862 11.778 1.188 19.327-1.188 9.344-2.746 11.491-3.539 8.535-3.235 5.4-2.747 2.848-3.732.884-4.423-2.359-4.019-5.198-4.516-11.879-2.46-10.902v-13.648l.784-13.843 3.142-10.404 3.337-7.558 2.948-5.004 3.438-3.244 1.862-1.07"/>
    <path d="m188.715 167.471 2.098 9.057 1.727 6.117 3.648 8.391 3.378 4.65 3.648 3.463 24.584-.531M230.738 120.249l-7.127 5.148-3.362 5.737-1.98 9.108-1.583 11.382-.894 9.107 1.584 12.082 2.873 8.812 3.016 5.94 4.533 3.462h3.539l4.254-4.751 2.477-9.007 2.275-8.618.893-9.596.396-10.194-1.087-10.296-1.786-9.107-3.168-5.847-2.477-2.367-2.376-.995ZM298.896 151.725l2.528 8.981 5.358 6.951 8.349 5.215 9.175 1.095 13.716-.371 8.534-2.906 6.445-6.167 4.811-7.541 3.724-11.441 1.179-13.261-1.449-12.806-3.269-7.995-4.448-6.083-6.445-5.358-4.727-1.045-6.579.91"/>
    <path d="m333.43 106.365 4.137-1.373h5.08l4.996 2.173 4.996 4.912 3.791 6.167 1.753 8.998.362 10.076-1.458 9.082-3.268 8.265-4.449 6.361-5.451 3.994-6.538 1.086-4.717-1.449-5.544-4.271-3.901-4.356-2.089-5.089-.986-2.519"/>
    <path d="m314.643 149.282 1.491 5.114 2.999 4.987 3.269 4.457 4.448 3.817 6.083 2.443 3.176 1.188 5.51 1.087"/>
  </g>
  <defs>
    <clipPath id="a">
      <path fill="#9e9e9e" transform="translate(.434)" d="M0 0h363.132v200H0z"/>
    </clipPath>
  </defs>
</svg>
