<?xml version="1.0" encoding="utf-8"?>
<!-- Generator: Adobe Illustrator 26.0.1, SVG Export Plug-In . SVG Version: 6.00 Build 0)  -->
<svg version="1.1" id="Layer_1" xmlns="http://www.w3.org/2000/svg" xmlns:xlink="http://www.w3.org/1999/xlink" x="0px" y="0px"
	 viewBox="0 0 1000 1000" style="enable-background:new 0 0 1000 1000;" xml:space="preserve">
<style type="text/css">
	.st0{fill:#766D66;}
</style>
<path class="st0" d="M791.7,83.4c0-46,37.4-83.4,83.4-83.4s83.2,37.4,83.2,83.4s-37.2,83.2-83.2,83.2S791.7,129.4,791.7,83.4z
	 M141.6,137.6c0,0,21,8.3,37.6,8.3c16.7,0,45.8-25.1,45.8-25.1l320.3,209.6l29.7,23.8l91.8-58.1V375c0,13.2,6,25.4,16.6,33.4
	L850,533.3c7.6,5.7,16.3,8.3,25.1,8.3c12.6,0,25-5.7,33.3-16.7c13.9-18.3,10-44.3-8.3-58.2L749.9,354.2v-37.4
	c6-49.7,12.7-107.8,12.7-112.5c0-58.4-54.1-79.4-125.2-79.4c-88.7,0-158.3,44-195.3,73.7l-192-115.2c0,0,4-20.9,0-41.7
	c-8.4-21-25.1-29.3-25.1-29.3l-33.3,46l-54.1-21l41.6,46L141.6,137.6L141.6,137.6z M821,916.8L521.3,746.1l174.9-175
	c8.8-8.7,13.1-21.1,12.1-33.6c-1.3-11.5-7.6-21.7-16.8-28.8c0.3-0.2-316.5-229.6-316.5-229.6l-20.8,29.4
	c-29.3,41.5-21,104.1,25,133.2c46,29.5,159.6,87.7,213.5,114.9L446,703.4L37.4,470.8L0,533.3l791.7,450c20.9,8.4,50,16.7,83.4,16.7
	c41.7,0,95.8-25,124.9-70.8C1000,929.2,933.5,966.7,821,916.8L821,916.8z"/>
</svg>
