<svg height="240" viewBox="0 0 240 240" width="240" xmlns="http://www.w3.org/2000/svg" xmlns:xlink="http://www.w3.org/1999/xlink"><linearGradient id="a" gradientUnits="userSpaceOnUse" x1="160.08" x2="100.08" y1="40.080003" y2="180"><stop offset="0" stop-color="#37aee2"/><stop offset="1" stop-color="#1e96c8"/></linearGradient><linearGradient id="b" gradientTransform="scale(1.0919068 .9158291)" gradientUnits="userSpaceOnUse" x1="123.67709" x2="146.50331" y1="131.03925" y2="174.66004"><stop offset="0" stop-color="#eff7fc"/><stop offset="1" stop-color="#fff"/></linearGradient><circle cx="120" cy="120" fill="url(#a)" r="120"/><path d="m98 175c-3.888 0-3.227-1.468-4.568-5.17l-11.432-37.623 88-52.207" fill="#c8daea"/><path d="m98 175c3 0 4.325-1.372 6-3l16-15.558-19.958-12.035" fill="#a9c9dd"/><path d="m100.04 144.41 48.36 35.729c5.519 3.045 9.501 1.468 10.876-5.123l19.685-92.763c2.015-8.08-3.08-11.746-8.36-9.349l-115.59 44.571c-7.89 3.165-7.843 7.567-1.438 9.528l29.663 9.259 68.673-43.325c3.242-1.966 6.218-.91 3.776 1.258" fill="url(#b)"/></svg>