<svg viewBox="0 0 439 240" fill="none" xmlns="http://www.w3.org/2000/svg"><path d="m438.379 1.512-92.14 45.554-44.321.194" stroke="#9e9e9e" stroke-width="2" stroke-miterlimit="10"/><path d="M348.74 1.39s-.344 16.871-2.866 24.002c-2.523 7.132-3.978 8.91-8.207 10.751-4.228 1.842-36.315 0-36.315 0M357.147 1.885s-1.741 22.52-3.096 26.827c-1.355 4.307-7.812 18.355-7.812 18.355M1.502 159.411a16.535 16.535 0 0 0 8.478-1.828c4.172-2.236 14.463-10.65 14.062-17.96 0 0-1.118-13.955-2.344-17.201-1.225-3.247-9.374-16.793-9.374-16.793s78.587-6.063 89.431-9.374c10.844-3.311 35.921-13.26 35.921-13.26s-8.4 56.621-9.761 59.753c-1.362 3.132-2.1 10.421-10.55 21.085-8.45 10.665-12.901 9.833-18.742 11.711-5.841 1.878-76.122 9.375-76.122 9.375l-21.88 2.042M152.155.595c-2.107 23.221-3.727 49.603-3.727 76.172 0 77.712 9.583 133.666 9.762 134.741.387 2.343 3.512 12.499 9.761 19.136 6.25 6.637 20.699 7.418 20.699 7.418s35.398.201 39.419.33c4.021.129 28.116-.717 28.116-.717s15.768-.487 23.042-9.375a49.23 49.23 0 0 0 9.375-19.136s7.468-7.826 10.199-144.897c.552-27.4.609-47.59.358-62.353" stroke="#9e9e9e" stroke-width="2" stroke-miterlimit="10"/><path d="m148.241 1.146-10.277 77.126S112.37 89.165 100.609 92.67c-11.761 3.505-90.398 9.088-90.398 9.088l-9.138-17.33M246.617.823c1.204 75.06.595 147.814-2.15 220.374-.172 4.436-.717 11.223-.917 15.66M226.613 1.118l-2.086 234.636M264.033 226.638v.587s8.923-2.214 11.252-3.798c2.329-1.584 9.898-5.469 9.898-5.469M265.595 216.259c-.165 1.254 17.954-5.182 13.868-3.806-.301.1 9.067-3.333 9.174-3.419" stroke="#9e9e9e" stroke-width="2" stroke-miterlimit="10"/><path d="M245.098 203.861c-.667.674 15.86 2.566 20.598.487 4.3-1.878 25.801-7.325 25.801-7.325M267.617 191.424l11.582-1.562 13.639-3.971M293.647 173.975s-11.646 3.118-14.707 3.383c-3.06.265-17.444 1.039-17.444 1.039M294.823 157.711s-9.432 3.319-14.843 4.035c-5.411.717-32.933-1.297-32.933-1.297M295.862 142.094s-10.034 3.383-14.836 4.035c-4.802.652-33.685-.523-33.685-.523M296.385 127.25s-11.567 3.778-15.158 4.165c-3.591.387-33.685-2.731-33.685-2.731M297.295 111.368l-10.156 1.828-15.23.387M297.819 91.719l-15.23.939-34.496-3.412M298.464 70.108l-5.92.58-9.568.2-35.8-6.249M247.571 39.255l35.663 7.031 15.23 1.433M246.66 12.443l43.418 6.623 9.303 4.443M247.957 110.854l23.952 2.731M247.569 190.582l-1.433.064 20.828.781M246.008 177.241l18.29 1.233M266.964 191.427v10.414M265.889 216.711l-20.433-1.297" stroke="#9e9e9e" stroke-width="2" stroke-miterlimit="10"/><path d="M274.254 16.347c-1.434 75.053-4.401 146.208-9.662 218.596M265.087 227.368l-20.77-1.054M241.241 1.414c1.204 75.06.595 147.814-2.15 220.373-.165 4.444-.717 11.224-.918 15.66M201.113.953c-1.211 75.06-.602 147.814 2.15 220.373.165 4.444.717 11.224.91 15.66M205.528 1.118c-1.204 75.06-.717 146.208 2.021 218.775.165 4.443.717 11.224.91 15.66M222.449 1.118l-1.563 234.048M183.231 227.468v.588s-8.916-2.215-11.26-3.777c-2.343-1.562-9.89-5.468-9.89-5.468M181.669 217.083c.165 1.261-17.918-5.182-13.861-3.806.301.101-9.074-3.325-9.181-3.418M202.181 204.683c.667.674-15.868 2.566-20.605.488-4.301-1.871-25.802-7.318-25.802-7.318M179.648 192.258l-11.582-1.562-13.639-3.971M153.617 174.813s11.653 3.125 14.706 3.383c3.054.258 17.445 1.047 17.445 1.047" stroke="#9e9e9e" stroke-width="2" stroke-miterlimit="10"/><path d="M152.448 158.544s9.424 3.319 14.836 4.036c5.411.716 34.072-1.09 34.072-1.09M151.402 142.918s10.034 3.383 14.843 4.035c4.809.652 35.119-.824 35.119-.824M150.886 128.105s11.567 3.77 15.151 4.164c3.583.394 34.803-2.781 34.803-2.781M149.969 112.202l10.155 1.821 15.23.394M149.453 92.54l15.23.947 35.893-3.333M148.801 70.932l5.92.588 9.568.194 36.287-6.293M199.702 40.086l-35.671 7.03-15.23 1.427M200.612 13.268l-43.426 6.63-6.206 3.346M200.84 112.021l-25.486 2.394M199.701 191.412l1.427.064-20.828.781M201.257 178.065l-18.283 1.24M180.299 192.255v10.414M181.375 217.542l20.44-1.304" stroke="#9e9e9e" stroke-width="2" stroke-miterlimit="10"/><path d="M173.011 17.17c1.433 75.062 4.4 146.209 9.661 218.597M182.178 228.192l20.777-1.054M274.254 16.348V1.118M173.241 17.26l.258-15.359" stroke="#9e9e9e" stroke-width="2" stroke-miterlimit="10"/></svg>
