<svg viewBox="0 0 281 241" fill="none" xmlns="http://www.w3.org/2000/svg"><path d="m.992 20.56 59.027 2.418 53.04 5.993M4.203 80.886l22.262-.095 33.15 1.618 50.939 5.256 23.198-.769 59.685-1.253" stroke="#9e9e9e" stroke-width="2" stroke-miterlimit="10"/><path d="M277.161 1.087c1.586 20.994 1.847 37.264 1.847 60.018 0 85.967-10.6 147.872-10.798 149.054-.428 2.592-3.885 13.827-10.799 21.168-6.913 7.342-22.897 8.214-22.897 8.214s-39.158.214-43.606.357-31.103-.793-31.103-.793-17.442-.531-25.49-10.37a54.413 54.413 0 0 1-10.37-21.161s-6.668-7.025-10.196-119.457" stroke="#9e9e9e" stroke-width="2" stroke-miterlimit="10"/><path d="M170.056 86.722c-.792 57.964.072 62.689 2.76 134.164.19 4.907 1.022 13.803 1.221 18.711M193.437 85.643l1.419 153.7M151.147 226.903v.65s-9.863-2.45-12.455-4.178c-2.593-1.728-10.941-6.049-10.941-6.049M149.419 215.415c.182 1.395-19.821-5.732-15.334-4.21.333.111-10.029-3.679-10.148-3.782" stroke="#9e9e9e" stroke-width="2" stroke-miterlimit="10"/><path d="M172.102 201.699c.737.745-17.553 2.838-22.786.539-4.757-2.069-28.542-8.095-28.542-8.095M147.191 187.951l-12.82-1.728-15.08-4.392M118.387 168.654s12.892 3.456 16.277 3.742c3.386.285 19.314 1.133 19.314 1.133M117.095 150.656s10.434 3.671 16.412 4.464c5.978.793 36.47-1.443 36.47-1.443M115.921 133.372s11.1 3.742 16.412 4.464c5.312.721 37.264-.571 37.264-.571M115.366 116.96s12.797 4.171 16.769 4.607c3.972.436 37.263-3.029 37.263-3.029M114.36 99.391l11.226 2.014 16.848.436M113.059 28.971s11.322 3.623 27.821 14.628c16.499 11.005 51.534 44.2 58.329 44.82 6.795.618 12.012.943 12.012.943s7.532 3.401 24.26-21.098c16.729-24.498 41.68-67.177 41.68-67.177M168.931 98.813l-26.489 3.028M170.952 187.087l-23.761.864M171.095 172.253l-18.077 1.332M149.102 215.922l22.604-1.443" stroke="#9e9e9e" stroke-width="2" stroke-miterlimit="10"/><path d="M141.935 88.077c1.585 52.431 3.845 85.762 8.499 149.744M149.982 227.704l22.984-1.165M175.543 86.722c-.73 59.875.46 62.341 3.171 134.782.183 4.908.793 12.416 1.015 17.324M221.139 85.397c-.286 45.192-1.062 90.971-2.743 135.631-.183 4.908-.746 13.915-.952 18.822M216.612 88.807c-.301 42.583-1.356 88.044-2.957 130.636-.183 4.907-.793 14.231-1.015 19.139M197.877 88.07l1.039 151.273M240.54 227.815v.65s9.863-2.45 12.455-4.178c2.593-1.728 12.432-6.517 12.432-6.517M242.268 216.343c-.182 1.387 19.821-5.733 15.334-4.21-.333.111 10.029-3.679 10.156-3.782M219.585 202.619c-.737.745 17.554 2.838 22.786.539 4.757-2.077 28.542-8.103 28.542-8.103M244.496 188.863l12.82-1.728 15.08-4.385M273.3 169.565s-12.892 3.449-16.277 3.742c-3.386.294-19.29 1.15-19.29 1.15M274.592 151.568s-10.426 3.671-16.411 4.464c-5.986.792-37.692-1.206-37.692-1.206" stroke="#9e9e9e" stroke-width="2" stroke-miterlimit="10"/><path d="M275.75 134.292s-11.1 3.742-16.42 4.464c-5.32.721-38.849-.92-38.849-.92M276.321 117.872s-12.797 4.179-16.769 4.607c-3.972.428-38.492-3.077-38.492-3.077M277.328 100.303l-11.227 2.022-16.848.428M277.906 78.563l-16.848 1.047-31.222-3.1M278.628 54.66l-6.557.65-10.576.213-16.65-1.593M260.86 28.725l.92-.42 16.848 1.586M221.06 100.113l28.193 2.64M222.32 187.927l-1.585.072 23.039.864M220.592 173.173l20.233 1.363M243.774 188.863v11.52M242.593 216.834l-23.88-1.348" stroke="#9e9e9e" stroke-width="2" stroke-miterlimit="10"/><path d="M249.998 45.993c-1.585 83.034-3.123 112.472-8.943 192.589M241.705 228.624l-22.984-1.166M3.79 119.783s70.928 7.35 79.538 5.748c8.61-1.601 30.548-17.68 30.548-17.68" stroke="#9e9e9e" stroke-width="2" stroke-miterlimit="10"/></svg>
