<svg height="241" viewBox="0 0 240 241" width="240" xmlns="http://www.w3.org/2000/svg" xmlns:xlink="http://www.w3.org/1999/xlink"><linearGradient id="a" gradientTransform="scale(.99775507 1.00225)" gradientUnits="userSpaceOnUse" x1="120.22466" x2="120.22466" y1="233.5952" y2="4.138361"><stop offset="0" stop-color="#20b038"/><stop offset="1" stop-color="#60d66a"/></linearGradient><path d="m204.95567 35.020328c-22.55449-22.570033-52.54524-35.00655751-84.49829-35.020328-65.8442 0-119.4281341 53.56682-119.4544948 119.40807-.007672 21.04642 5.4914755 41.59081 15.9438688 59.70019l-16.946754 61.87849 63.324197-16.60446c17.447016 9.51502 37.091213 14.52886 57.081833 14.53692h.0508.00059c65.83357 0 119.42557-53.57626 119.45351-119.41436.011-31.909768-12.40368-61.912916-34.95522-84.484522zm-84.49829 183.730422h-.0388c-17.81858-.00944-35.292154-4.79331-50.533334-13.83718l-3.627148-2.15016-37.577901 9.85239 10.032787-36.62478-2.363214-3.75482c-9.939344-15.80381-15.186491-34.06722-15.179024-52.82046.021844-54.725117 44.558762-99.246494 99.324204-99.246494 26.52039.01102 51.44636 10.348328 70.19292 29.107869 18.74538 18.759344 29.06124 43.697311 29.05338 70.219275-.0232 54.72689-44.56171 99.25436-99.28387 99.25436z" fill="#e0e0e0"/><path d="m5.4836066 234.12079 16.1726554-59.05181c-9.977508-17.28236-15.2244587-36.88977-15.2181636-56.97088.0261639-62.832395 51.1628856-113.9508213 113.9939016-113.9508213 30.49495.01377 59.11633 11.8815733 80.63567 33.4211803 21.52407 21.53941 33.37043 50.170033 33.35804 80.618751-.0262 62.83397-51.16604 113.95692-113.98918 113.95692-.005 0 .003 0 0 0h-.0508c-19.07744-.006-37.822819-4.79508-54.471737-13.86885z" fill="url(#a)"/><g fill="#fff"><path d="m90.938951 68.713574c-2.209967-4.913508-4.536787-5.011869-6.639344-5.097836-1.719738-.07377-3.688525-.0693-5.654164-.0693-1.967214 0-5.163935.739332-7.867279 3.691726-2.704918 2.952393-10.327869 10.089639-10.327869 24.605508 0 14.517438 10.573771 28.544658 12.047607 30.514818 1.475409 1.96722 20.411409 32.70807 50.400588 44.53436 24.92361 9.8284 29.99548 7.87338 35.40531 7.38158 5.40984-.49181 17.45587-7.13568 19.91489-14.02564 2.45901-6.8884 2.45901-12.79299 1.72131-14.02722-.73771-1.2295-2.70492-1.96721-5.65574-3.44262s-17.45587-8.61423-20.16078-9.59784c-2.70492-.9836-4.67214-1.47541-6.63935 1.47856-1.96721 2.95082-7.61843 9.59469-9.33974 11.5619-1.72131 1.97174-3.44262 2.21764-6.39344.74223-2.95082-1.47993-12.45344-4.59226-23.72636-14.64354-8.771016-7.81967-14.692721-17.47751-16.414033-20.43128-1.721311-2.95082-.184524-4.54918 1.295607-6.02006 1.324721-1.32177 2.95082-3.4442 4.426229-5.16708 1.472263-1.722889 1.964066-2.952397 2.947677-4.919611.9836-1.97036.4918-3.693049-.24591-5.168459-.737701-1.475409-6.471734-16.066229-9.095209-21.900196z" fill-rule="evenodd"/><path d="m203.97993 34.640852c-22.2956-22.31095-51.94209-34.60445856-83.52806-34.61842577-65.088591 0-118.0573782 52.95186877-118.0835421 118.03731377-.00767 20.80505 5.4283278 41.11337 15.7607211 59.01501l-16.7519998 61.16794 62.5973118-16.41403c17.24695 9.40563 36.665509 14.36222 56.426759 14.3699h.0502.00059c65.07777 0 118.05423-52.96112 118.08197-118.04361.0108-31.542884-12.26125-61.201573-34.55391-83.514098zm-83.52806 181.621378h-.0384c-17.61419-.00925-34.887306-4.73823-49.953404-13.67823l-3.58564-2.12557-37.146492 9.73928 9.917509-36.2044-2.336066-3.71154c-9.825246-15.62243-15.012197-33.67633-15.004533-52.21416.02145-54.09679 44.04709-98.107085 98.184006-98.107085 26.21626.01082 50.85561 10.229508 69.38735 28.773639 18.53016 18.544131 28.72741 43.195672 28.71974 69.413506-.0232 54.09817-44.05043 98.11456-98.14407 98.11456z"/></g></svg>